<mxfile host="Electron" agent="Mozilla/5.0 (Windows NT 10.0; Win64; x64) AppleWebKit/537.36 (KHTML, like Gecko) draw.io/26.0.4 Chrome/128.0.6613.186 Electron/32.2.5 Safari/537.36" version="26.0.4">
  <diagram name="Страница — 1" id="-Ves8a1Da6EOEofOBD4h">
    <mxGraphModel dx="737" dy="410" grid="1" gridSize="10" guides="1" tooltips="1" connect="1" arrows="1" fold="1" page="1" pageScale="1" pageWidth="827" pageHeight="1169" math="0" shadow="0">
      <root>
        <mxCell id="0" />
        <mxCell id="1" parent="0" />
        <mxCell id="par15KkcUKG-uacjkhJL-5" style="edgeStyle=orthogonalEdgeStyle;rounded=0;orthogonalLoop=1;jettySize=auto;html=1;entryX=0.5;entryY=0;entryDx=0;entryDy=0;" edge="1" parent="1" source="par15KkcUKG-uacjkhJL-1" target="par15KkcUKG-uacjkhJL-3">
          <mxGeometry relative="1" as="geometry" />
        </mxCell>
        <mxCell id="par15KkcUKG-uacjkhJL-1" value="Начало" style="ellipse;whiteSpace=wrap;html=1;" vertex="1" parent="1">
          <mxGeometry x="200" y="10" width="70" height="40" as="geometry" />
        </mxCell>
        <mxCell id="par15KkcUKG-uacjkhJL-2" value="&lt;div&gt;#include &amp;lt;iostream&amp;gt;&lt;/div&gt;&lt;div&gt;#include &amp;lt;ctime&amp;gt;&lt;/div&gt;&lt;div&gt;#include &amp;lt;clocale&amp;gt;&lt;/div&gt;&lt;div&gt;using namespace std;&lt;/div&gt;" style="text;html=1;align=center;verticalAlign=middle;whiteSpace=wrap;rounded=0;" vertex="1" parent="1">
          <mxGeometry x="300" y="30" width="130" height="70" as="geometry" />
        </mxCell>
        <mxCell id="par15KkcUKG-uacjkhJL-14" style="edgeStyle=orthogonalEdgeStyle;rounded=0;orthogonalLoop=1;jettySize=auto;html=1;entryX=0.5;entryY=0;entryDx=0;entryDy=0;" edge="1" parent="1" source="par15KkcUKG-uacjkhJL-3" target="par15KkcUKG-uacjkhJL-13">
          <mxGeometry relative="1" as="geometry" />
        </mxCell>
        <mxCell id="par15KkcUKG-uacjkhJL-3" value="int main()" style="shape=process;whiteSpace=wrap;html=1;backgroundOutline=1;" vertex="1" parent="1">
          <mxGeometry x="200" y="80" width="70" height="20" as="geometry" />
        </mxCell>
        <mxCell id="par15KkcUKG-uacjkhJL-6" value="" style="endArrow=none;dashed=1;html=1;rounded=0;entryX=0;entryY=0.5;entryDx=0;entryDy=0;" edge="1" parent="1" target="par15KkcUKG-uacjkhJL-2">
          <mxGeometry width="50" height="50" relative="1" as="geometry">
            <mxPoint x="240" y="65" as="sourcePoint" />
            <mxPoint x="450" y="210" as="targetPoint" />
          </mxGeometry>
        </mxCell>
        <mxCell id="par15KkcUKG-uacjkhJL-7" value="" style="endArrow=none;html=1;rounded=0;exitX=0;exitY=1;exitDx=0;exitDy=0;entryX=1;entryY=1;entryDx=0;entryDy=0;" edge="1" parent="1" source="par15KkcUKG-uacjkhJL-2" target="par15KkcUKG-uacjkhJL-2">
          <mxGeometry width="50" height="50" relative="1" as="geometry">
            <mxPoint x="400" y="260" as="sourcePoint" />
            <mxPoint x="450" y="210" as="targetPoint" />
          </mxGeometry>
        </mxCell>
        <mxCell id="par15KkcUKG-uacjkhJL-8" value="" style="endArrow=none;html=1;rounded=0;entryX=0;entryY=0;entryDx=0;entryDy=0;exitX=1;exitY=0;exitDx=0;exitDy=0;" edge="1" parent="1" source="par15KkcUKG-uacjkhJL-2" target="par15KkcUKG-uacjkhJL-2">
          <mxGeometry width="50" height="50" relative="1" as="geometry">
            <mxPoint x="320" y="170" as="sourcePoint" />
            <mxPoint x="370" y="120" as="targetPoint" />
          </mxGeometry>
        </mxCell>
        <mxCell id="par15KkcUKG-uacjkhJL-9" value="" style="endArrow=none;html=1;rounded=0;entryX=0;entryY=0;entryDx=0;entryDy=0;exitX=0;exitY=1;exitDx=0;exitDy=0;" edge="1" parent="1" source="par15KkcUKG-uacjkhJL-2" target="par15KkcUKG-uacjkhJL-2">
          <mxGeometry width="50" height="50" relative="1" as="geometry">
            <mxPoint x="400" y="260" as="sourcePoint" />
            <mxPoint x="450" y="210" as="targetPoint" />
          </mxGeometry>
        </mxCell>
        <mxCell id="par15KkcUKG-uacjkhJL-49" style="edgeStyle=orthogonalEdgeStyle;rounded=0;orthogonalLoop=1;jettySize=auto;html=1;entryX=0.5;entryY=0;entryDx=0;entryDy=0;" edge="1" parent="1" source="par15KkcUKG-uacjkhJL-10" target="par15KkcUKG-uacjkhJL-47">
          <mxGeometry relative="1" as="geometry" />
        </mxCell>
        <mxCell id="par15KkcUKG-uacjkhJL-10" value="string s;" style="rounded=0;whiteSpace=wrap;html=1;" vertex="1" parent="1">
          <mxGeometry x="210" y="240" width="50" height="20" as="geometry" />
        </mxCell>
        <mxCell id="par15KkcUKG-uacjkhJL-17" style="edgeStyle=orthogonalEdgeStyle;rounded=0;orthogonalLoop=1;jettySize=auto;html=1;entryX=0.5;entryY=0;entryDx=0;entryDy=0;" edge="1" parent="1" source="par15KkcUKG-uacjkhJL-11" target="par15KkcUKG-uacjkhJL-10">
          <mxGeometry relative="1" as="geometry" />
        </mxCell>
        <mxCell id="par15KkcUKG-uacjkhJL-11" value="int n;" style="rounded=0;whiteSpace=wrap;html=1;" vertex="1" parent="1">
          <mxGeometry x="215" y="200" width="40" height="20" as="geometry" />
        </mxCell>
        <mxCell id="par15KkcUKG-uacjkhJL-16" style="edgeStyle=orthogonalEdgeStyle;rounded=0;orthogonalLoop=1;jettySize=auto;html=1;entryX=0.5;entryY=0;entryDx=0;entryDy=0;" edge="1" parent="1" source="par15KkcUKG-uacjkhJL-12" target="par15KkcUKG-uacjkhJL-11">
          <mxGeometry relative="1" as="geometry" />
        </mxCell>
        <mxCell id="par15KkcUKG-uacjkhJL-12" value="srand(time(0));" style="rounded=0;whiteSpace=wrap;html=1;" vertex="1" parent="1">
          <mxGeometry x="190" y="160" width="90" height="20" as="geometry" />
        </mxCell>
        <mxCell id="par15KkcUKG-uacjkhJL-15" style="edgeStyle=orthogonalEdgeStyle;rounded=0;orthogonalLoop=1;jettySize=auto;html=1;" edge="1" parent="1" source="par15KkcUKG-uacjkhJL-13" target="par15KkcUKG-uacjkhJL-12">
          <mxGeometry relative="1" as="geometry" />
        </mxCell>
        <mxCell id="par15KkcUKG-uacjkhJL-13" value="setlocale(0, &quot;&quot;);" style="rounded=0;whiteSpace=wrap;html=1;" vertex="1" parent="1">
          <mxGeometry x="190" y="120" width="90" height="20" as="geometry" />
        </mxCell>
        <mxCell id="par15KkcUKG-uacjkhJL-21" style="edgeStyle=orthogonalEdgeStyle;rounded=0;orthogonalLoop=1;jettySize=auto;html=1;entryX=0.5;entryY=0;entryDx=0;entryDy=0;" edge="1" parent="1" source="par15KkcUKG-uacjkhJL-18" target="par15KkcUKG-uacjkhJL-19">
          <mxGeometry relative="1" as="geometry" />
        </mxCell>
        <mxCell id="par15KkcUKG-uacjkhJL-18" value="void print(string* matr, int&amp;amp; n, int k)" style="shape=process;whiteSpace=wrap;html=1;backgroundOutline=1;" vertex="1" parent="1">
          <mxGeometry x="490" y="30" width="240" height="20" as="geometry" />
        </mxCell>
        <mxCell id="par15KkcUKG-uacjkhJL-22" style="edgeStyle=orthogonalEdgeStyle;rounded=0;orthogonalLoop=1;jettySize=auto;html=1;entryX=0.5;entryY=0;entryDx=0;entryDy=0;" edge="1" parent="1" source="par15KkcUKG-uacjkhJL-19" target="par15KkcUKG-uacjkhJL-20">
          <mxGeometry relative="1" as="geometry" />
        </mxCell>
        <mxCell id="par15KkcUKG-uacjkhJL-31" style="edgeStyle=orthogonalEdgeStyle;rounded=0;orthogonalLoop=1;jettySize=auto;html=1;entryX=0.5;entryY=0;entryDx=0;entryDy=0;" edge="1" parent="1" source="par15KkcUKG-uacjkhJL-19" target="par15KkcUKG-uacjkhJL-30">
          <mxGeometry relative="1" as="geometry" />
        </mxCell>
        <mxCell id="par15KkcUKG-uacjkhJL-19" value="for (int i = 0; i &amp;lt; n; i++)" style="shape=hexagon;perimeter=hexagonPerimeter2;whiteSpace=wrap;html=1;fixedSize=1;" vertex="1" parent="1">
          <mxGeometry x="535" y="70" width="150" height="20" as="geometry" />
        </mxCell>
        <mxCell id="par15KkcUKG-uacjkhJL-25" style="edgeStyle=orthogonalEdgeStyle;rounded=0;orthogonalLoop=1;jettySize=auto;html=1;entryX=0.5;entryY=0;entryDx=0;entryDy=0;" edge="1" parent="1" source="par15KkcUKG-uacjkhJL-20" target="par15KkcUKG-uacjkhJL-24">
          <mxGeometry relative="1" as="geometry">
            <Array as="points">
              <mxPoint x="540" y="130" />
            </Array>
          </mxGeometry>
        </mxCell>
        <mxCell id="par15KkcUKG-uacjkhJL-26" style="edgeStyle=orthogonalEdgeStyle;rounded=0;orthogonalLoop=1;jettySize=auto;html=1;entryX=0.5;entryY=0;entryDx=0;entryDy=0;" edge="1" parent="1" source="par15KkcUKG-uacjkhJL-20" target="par15KkcUKG-uacjkhJL-23">
          <mxGeometry relative="1" as="geometry">
            <Array as="points">
              <mxPoint x="680" y="130" />
            </Array>
          </mxGeometry>
        </mxCell>
        <mxCell id="par15KkcUKG-uacjkhJL-20" value="if (i != k - 1)" style="rhombus;whiteSpace=wrap;html=1;" vertex="1" parent="1">
          <mxGeometry x="560" y="115" width="100" height="30" as="geometry" />
        </mxCell>
        <mxCell id="par15KkcUKG-uacjkhJL-28" style="edgeStyle=orthogonalEdgeStyle;rounded=0;orthogonalLoop=1;jettySize=auto;html=1;" edge="1" parent="1" source="par15KkcUKG-uacjkhJL-23">
          <mxGeometry relative="1" as="geometry">
            <mxPoint x="610" y="180" as="targetPoint" />
            <Array as="points">
              <mxPoint x="680" y="180" />
              <mxPoint x="610" y="180" />
            </Array>
          </mxGeometry>
        </mxCell>
        <mxCell id="par15KkcUKG-uacjkhJL-23" value="continue;" style="rounded=0;whiteSpace=wrap;html=1;" vertex="1" parent="1">
          <mxGeometry x="650" y="150" width="60" height="20" as="geometry" />
        </mxCell>
        <mxCell id="par15KkcUKG-uacjkhJL-27" style="edgeStyle=orthogonalEdgeStyle;rounded=0;orthogonalLoop=1;jettySize=auto;html=1;" edge="1" parent="1" source="par15KkcUKG-uacjkhJL-24">
          <mxGeometry relative="1" as="geometry">
            <mxPoint x="610" y="180" as="targetPoint" />
            <Array as="points">
              <mxPoint x="530" y="180" />
              <mxPoint x="610" y="180" />
            </Array>
          </mxGeometry>
        </mxCell>
        <mxCell id="par15KkcUKG-uacjkhJL-24" value="cout &amp;lt;&amp;lt; matr[i] &amp;lt;&amp;lt; endl;" style="shape=parallelogram;perimeter=parallelogramPerimeter;whiteSpace=wrap;html=1;fixedSize=1;" vertex="1" parent="1">
          <mxGeometry x="460" y="150" width="160" height="20" as="geometry" />
        </mxCell>
        <mxCell id="par15KkcUKG-uacjkhJL-29" value="" style="endArrow=classic;html=1;rounded=0;entryX=0;entryY=0.5;entryDx=0;entryDy=0;" edge="1" parent="1" target="par15KkcUKG-uacjkhJL-19">
          <mxGeometry width="50" height="50" relative="1" as="geometry">
            <mxPoint x="610" y="180" as="sourcePoint" />
            <mxPoint x="480" y="80" as="targetPoint" />
            <Array as="points">
              <mxPoint x="610" y="200" />
              <mxPoint x="450" y="200" />
              <mxPoint x="450" y="80" />
            </Array>
          </mxGeometry>
        </mxCell>
        <mxCell id="par15KkcUKG-uacjkhJL-30" value="return 0;" style="ellipse;whiteSpace=wrap;html=1;" vertex="1" parent="1">
          <mxGeometry x="690" y="210" width="60" height="30" as="geometry" />
        </mxCell>
        <mxCell id="par15KkcUKG-uacjkhJL-32" value="{" style="text;html=1;align=center;verticalAlign=middle;whiteSpace=wrap;rounded=0;" vertex="1" parent="1">
          <mxGeometry x="590" y="45" width="10" height="25" as="geometry" />
        </mxCell>
        <mxCell id="par15KkcUKG-uacjkhJL-33" value="{" style="text;html=1;align=center;verticalAlign=middle;whiteSpace=wrap;rounded=0;" vertex="1" parent="1">
          <mxGeometry x="570" y="90" width="20" height="20" as="geometry" />
        </mxCell>
        <mxCell id="par15KkcUKG-uacjkhJL-34" value="}" style="text;html=1;align=center;verticalAlign=middle;whiteSpace=wrap;rounded=0;" vertex="1" parent="1">
          <mxGeometry x="620" y="180" width="20" height="20" as="geometry" />
        </mxCell>
        <mxCell id="par15KkcUKG-uacjkhJL-35" value="}" style="text;html=1;align=center;verticalAlign=middle;whiteSpace=wrap;rounded=0;" vertex="1" parent="1">
          <mxGeometry x="750" y="215" width="10" height="20" as="geometry" />
        </mxCell>
        <mxCell id="par15KkcUKG-uacjkhJL-36" value="}" style="text;html=1;align=center;verticalAlign=middle;whiteSpace=wrap;rounded=0;" vertex="1" parent="1">
          <mxGeometry x="740" y="170" width="20" height="20" as="geometry" />
        </mxCell>
        <mxCell id="par15KkcUKG-uacjkhJL-37" value="" style="endArrow=none;dashed=1;html=1;dashPattern=1 3;strokeWidth=2;rounded=0;entryX=0;entryY=0;entryDx=0;entryDy=0;exitX=0;exitY=1;exitDx=0;exitDy=0;" edge="1" parent="1" source="par15KkcUKG-uacjkhJL-36" target="par15KkcUKG-uacjkhJL-36">
          <mxGeometry width="50" height="50" relative="1" as="geometry">
            <mxPoint x="700" y="180" as="sourcePoint" />
            <mxPoint x="750" y="130" as="targetPoint" />
          </mxGeometry>
        </mxCell>
        <mxCell id="par15KkcUKG-uacjkhJL-39" value="1" style="text;html=1;align=center;verticalAlign=middle;whiteSpace=wrap;rounded=0;" vertex="1" parent="1">
          <mxGeometry x="590" y="92.5" width="20" height="15" as="geometry" />
        </mxCell>
        <mxCell id="par15KkcUKG-uacjkhJL-43" value="1" style="text;html=1;align=center;verticalAlign=middle;whiteSpace=wrap;rounded=0;" vertex="1" parent="1">
          <mxGeometry x="540" y="115" width="20" height="15" as="geometry" />
        </mxCell>
        <mxCell id="par15KkcUKG-uacjkhJL-44" value="0" style="text;html=1;align=center;verticalAlign=middle;whiteSpace=wrap;rounded=0;" vertex="1" parent="1">
          <mxGeometry x="685" y="62.5" width="20" height="17.5" as="geometry" />
        </mxCell>
        <mxCell id="par15KkcUKG-uacjkhJL-45" value="0" style="text;html=1;align=center;verticalAlign=middle;whiteSpace=wrap;rounded=0;" vertex="1" parent="1">
          <mxGeometry x="660" y="110" width="20" height="17.5" as="geometry" />
        </mxCell>
        <mxCell id="par15KkcUKG-uacjkhJL-46" value="{" style="text;html=1;align=center;verticalAlign=middle;whiteSpace=wrap;rounded=0;" vertex="1" parent="1">
          <mxGeometry x="210" y="100" width="20" height="20" as="geometry" />
        </mxCell>
        <mxCell id="par15KkcUKG-uacjkhJL-51" style="edgeStyle=orthogonalEdgeStyle;rounded=0;orthogonalLoop=1;jettySize=auto;html=1;entryX=0.5;entryY=0;entryDx=0;entryDy=0;" edge="1" parent="1" source="par15KkcUKG-uacjkhJL-47" target="par15KkcUKG-uacjkhJL-48">
          <mxGeometry relative="1" as="geometry" />
        </mxCell>
        <mxCell id="par15KkcUKG-uacjkhJL-47" value="cout &amp;lt;&amp;lt; &quot;Введите размер массива: &quot;;" style="shape=parallelogram;perimeter=parallelogramPerimeter;whiteSpace=wrap;html=1;fixedSize=1;" vertex="1" parent="1">
          <mxGeometry x="115" y="280" width="240" height="20" as="geometry" />
        </mxCell>
        <mxCell id="par15KkcUKG-uacjkhJL-53" style="edgeStyle=orthogonalEdgeStyle;rounded=0;orthogonalLoop=1;jettySize=auto;html=1;entryX=0.5;entryY=0;entryDx=0;entryDy=0;" edge="1" parent="1" source="par15KkcUKG-uacjkhJL-48" target="par15KkcUKG-uacjkhJL-52">
          <mxGeometry relative="1" as="geometry" />
        </mxCell>
        <mxCell id="par15KkcUKG-uacjkhJL-48" value="cin &amp;gt;&amp;gt; n;" style="shape=parallelogram;perimeter=parallelogramPerimeter;whiteSpace=wrap;html=1;fixedSize=1;" vertex="1" parent="1">
          <mxGeometry x="195" y="320" width="80" height="20" as="geometry" />
        </mxCell>
        <mxCell id="par15KkcUKG-uacjkhJL-55" style="edgeStyle=orthogonalEdgeStyle;rounded=0;orthogonalLoop=1;jettySize=auto;html=1;entryX=0.5;entryY=0;entryDx=0;entryDy=0;" edge="1" parent="1" source="par15KkcUKG-uacjkhJL-52" target="par15KkcUKG-uacjkhJL-54">
          <mxGeometry relative="1" as="geometry" />
        </mxCell>
        <mxCell id="par15KkcUKG-uacjkhJL-52" value="string* matr = new string[n];" style="rounded=0;whiteSpace=wrap;html=1;" vertex="1" parent="1">
          <mxGeometry x="160" y="360" width="150" height="20" as="geometry" />
        </mxCell>
        <mxCell id="par15KkcUKG-uacjkhJL-59" style="edgeStyle=orthogonalEdgeStyle;rounded=0;orthogonalLoop=1;jettySize=auto;html=1;entryX=0.5;entryY=0;entryDx=0;entryDy=0;" edge="1" parent="1" source="par15KkcUKG-uacjkhJL-54" target="par15KkcUKG-uacjkhJL-56">
          <mxGeometry relative="1" as="geometry" />
        </mxCell>
        <mxCell id="par15KkcUKG-uacjkhJL-54" value="cout &amp;lt;&amp;lt; &quot;Вводите сстроки массива (через enter)&quot; &amp;lt;&amp;lt; endl;" style="shape=parallelogram;perimeter=parallelogramPerimeter;whiteSpace=wrap;html=1;fixedSize=1;" vertex="1" parent="1">
          <mxGeometry x="60" y="400" width="350" height="20" as="geometry" />
        </mxCell>
        <mxCell id="par15KkcUKG-uacjkhJL-60" style="edgeStyle=orthogonalEdgeStyle;rounded=0;orthogonalLoop=1;jettySize=auto;html=1;" edge="1" parent="1" source="par15KkcUKG-uacjkhJL-56" target="par15KkcUKG-uacjkhJL-57">
          <mxGeometry relative="1" as="geometry" />
        </mxCell>
        <mxCell id="par15KkcUKG-uacjkhJL-70" style="edgeStyle=orthogonalEdgeStyle;rounded=0;orthogonalLoop=1;jettySize=auto;html=1;entryX=0.5;entryY=0;entryDx=0;entryDy=0;" edge="1" parent="1" source="par15KkcUKG-uacjkhJL-56" target="par15KkcUKG-uacjkhJL-67">
          <mxGeometry relative="1" as="geometry" />
        </mxCell>
        <mxCell id="par15KkcUKG-uacjkhJL-56" value="for (int i = 0; i &amp;lt; n; i++)" style="shape=hexagon;perimeter=hexagonPerimeter2;whiteSpace=wrap;html=1;fixedSize=1;" vertex="1" parent="1">
          <mxGeometry x="165" y="440" width="140" height="20" as="geometry" />
        </mxCell>
        <mxCell id="par15KkcUKG-uacjkhJL-61" style="edgeStyle=orthogonalEdgeStyle;rounded=0;orthogonalLoop=1;jettySize=auto;html=1;entryX=0.5;entryY=0;entryDx=0;entryDy=0;" edge="1" parent="1" source="par15KkcUKG-uacjkhJL-57" target="par15KkcUKG-uacjkhJL-58">
          <mxGeometry relative="1" as="geometry" />
        </mxCell>
        <mxCell id="par15KkcUKG-uacjkhJL-57" value="cin &amp;gt;&amp;gt; s;" style="shape=parallelogram;perimeter=parallelogramPerimeter;whiteSpace=wrap;html=1;fixedSize=1;" vertex="1" parent="1">
          <mxGeometry x="195" y="480" width="80" height="20" as="geometry" />
        </mxCell>
        <mxCell id="par15KkcUKG-uacjkhJL-62" style="edgeStyle=orthogonalEdgeStyle;rounded=0;orthogonalLoop=1;jettySize=auto;html=1;entryX=0;entryY=0.5;entryDx=0;entryDy=0;" edge="1" parent="1" source="par15KkcUKG-uacjkhJL-58" target="par15KkcUKG-uacjkhJL-56">
          <mxGeometry relative="1" as="geometry">
            <mxPoint x="140" y="460" as="targetPoint" />
            <Array as="points">
              <mxPoint x="235" y="560" />
              <mxPoint x="150" y="560" />
              <mxPoint x="150" y="450" />
            </Array>
          </mxGeometry>
        </mxCell>
        <mxCell id="par15KkcUKG-uacjkhJL-58" value="matr[i] = s;" style="rounded=0;whiteSpace=wrap;html=1;" vertex="1" parent="1">
          <mxGeometry x="205" y="520" width="60" height="20" as="geometry" />
        </mxCell>
        <mxCell id="par15KkcUKG-uacjkhJL-63" value="{" style="text;html=1;align=center;verticalAlign=middle;whiteSpace=wrap;rounded=0;" vertex="1" parent="1">
          <mxGeometry x="195" y="460" width="20" height="20" as="geometry" />
        </mxCell>
        <mxCell id="par15KkcUKG-uacjkhJL-64" value="1" style="text;html=1;align=center;verticalAlign=middle;whiteSpace=wrap;rounded=0;" vertex="1" parent="1">
          <mxGeometry x="210" y="462.5" width="20" height="15" as="geometry" />
        </mxCell>
        <mxCell id="par15KkcUKG-uacjkhJL-65" value="}" style="text;html=1;align=center;verticalAlign=middle;whiteSpace=wrap;rounded=0;" vertex="1" parent="1">
          <mxGeometry x="235" y="540" width="20" height="20" as="geometry" />
        </mxCell>
        <mxCell id="par15KkcUKG-uacjkhJL-66" value="0" style="text;html=1;align=center;verticalAlign=middle;whiteSpace=wrap;rounded=0;" vertex="1" parent="1">
          <mxGeometry x="305" y="430" width="20" height="17.5" as="geometry" />
        </mxCell>
        <mxCell id="par15KkcUKG-uacjkhJL-71" style="edgeStyle=orthogonalEdgeStyle;rounded=0;orthogonalLoop=1;jettySize=auto;html=1;entryX=0.5;entryY=0;entryDx=0;entryDy=0;" edge="1" parent="1" source="par15KkcUKG-uacjkhJL-67" target="par15KkcUKG-uacjkhJL-68">
          <mxGeometry relative="1" as="geometry" />
        </mxCell>
        <mxCell id="par15KkcUKG-uacjkhJL-67" value="int k;" style="rounded=0;whiteSpace=wrap;html=1;" vertex="1" parent="1">
          <mxGeometry x="460" y="470" width="40" height="20" as="geometry" />
        </mxCell>
        <mxCell id="par15KkcUKG-uacjkhJL-72" style="edgeStyle=orthogonalEdgeStyle;rounded=0;orthogonalLoop=1;jettySize=auto;html=1;entryX=0.5;entryY=0;entryDx=0;entryDy=0;" edge="1" parent="1" source="par15KkcUKG-uacjkhJL-68" target="par15KkcUKG-uacjkhJL-69">
          <mxGeometry relative="1" as="geometry" />
        </mxCell>
        <mxCell id="par15KkcUKG-uacjkhJL-68" value="cout &amp;lt;&amp;lt; &quot;Введите номер строки, который необходимо удалить: &quot;;" style="shape=parallelogram;perimeter=parallelogramPerimeter;whiteSpace=wrap;html=1;fixedSize=1;" vertex="1" parent="1">
          <mxGeometry x="280" y="510" width="400" height="20" as="geometry" />
        </mxCell>
        <mxCell id="par15KkcUKG-uacjkhJL-74" style="edgeStyle=orthogonalEdgeStyle;rounded=0;orthogonalLoop=1;jettySize=auto;html=1;entryX=0.5;entryY=0;entryDx=0;entryDy=0;" edge="1" parent="1" source="par15KkcUKG-uacjkhJL-69" target="par15KkcUKG-uacjkhJL-73">
          <mxGeometry relative="1" as="geometry" />
        </mxCell>
        <mxCell id="par15KkcUKG-uacjkhJL-69" value="cin &amp;gt;&amp;gt; k;" style="shape=parallelogram;perimeter=parallelogramPerimeter;whiteSpace=wrap;html=1;fixedSize=1;" vertex="1" parent="1">
          <mxGeometry x="440" y="550" width="80" height="20" as="geometry" />
        </mxCell>
        <mxCell id="par15KkcUKG-uacjkhJL-76" style="edgeStyle=orthogonalEdgeStyle;rounded=0;orthogonalLoop=1;jettySize=auto;html=1;" edge="1" parent="1" source="par15KkcUKG-uacjkhJL-73" target="par15KkcUKG-uacjkhJL-75">
          <mxGeometry relative="1" as="geometry" />
        </mxCell>
        <mxCell id="par15KkcUKG-uacjkhJL-73" value="string* nmatr = new string[n];" style="rounded=0;whiteSpace=wrap;html=1;" vertex="1" parent="1">
          <mxGeometry x="400" y="590" width="160" height="20" as="geometry" />
        </mxCell>
        <mxCell id="par15KkcUKG-uacjkhJL-91" style="edgeStyle=orthogonalEdgeStyle;rounded=0;orthogonalLoop=1;jettySize=auto;html=1;entryX=0.5;entryY=0;entryDx=0;entryDy=0;" edge="1" parent="1" source="par15KkcUKG-uacjkhJL-75" target="par15KkcUKG-uacjkhJL-80">
          <mxGeometry relative="1" as="geometry" />
        </mxCell>
        <mxCell id="par15KkcUKG-uacjkhJL-105" style="edgeStyle=orthogonalEdgeStyle;rounded=0;orthogonalLoop=1;jettySize=auto;html=1;" edge="1" parent="1" source="par15KkcUKG-uacjkhJL-75" target="par15KkcUKG-uacjkhJL-95">
          <mxGeometry relative="1" as="geometry" />
        </mxCell>
        <mxCell id="par15KkcUKG-uacjkhJL-75" value="for (int i = 0; i &amp;lt; n; i++)" style="shape=hexagon;perimeter=hexagonPerimeter2;whiteSpace=wrap;html=1;fixedSize=1;" vertex="1" parent="1">
          <mxGeometry x="405" y="630" width="150" height="20" as="geometry" />
        </mxCell>
        <mxCell id="par15KkcUKG-uacjkhJL-78" style="edgeStyle=orthogonalEdgeStyle;rounded=0;orthogonalLoop=1;jettySize=auto;html=1;entryX=0.5;entryY=0;entryDx=0;entryDy=0;" edge="1" source="par15KkcUKG-uacjkhJL-80" target="par15KkcUKG-uacjkhJL-89" parent="1">
          <mxGeometry relative="1" as="geometry">
            <mxPoint x="410" y="705" as="targetPoint" />
            <Array as="points">
              <mxPoint x="410" y="685.5" />
            </Array>
          </mxGeometry>
        </mxCell>
        <mxCell id="par15KkcUKG-uacjkhJL-79" style="edgeStyle=orthogonalEdgeStyle;rounded=0;orthogonalLoop=1;jettySize=auto;html=1;entryX=0.5;entryY=0;entryDx=0;entryDy=0;" edge="1" source="par15KkcUKG-uacjkhJL-80" target="par15KkcUKG-uacjkhJL-82" parent="1">
          <mxGeometry relative="1" as="geometry">
            <Array as="points">
              <mxPoint x="550" y="685" />
            </Array>
          </mxGeometry>
        </mxCell>
        <mxCell id="par15KkcUKG-uacjkhJL-80" value="if (i != k - 1)" style="rhombus;whiteSpace=wrap;html=1;" vertex="1" parent="1">
          <mxGeometry x="430" y="670" width="100" height="30" as="geometry" />
        </mxCell>
        <mxCell id="par15KkcUKG-uacjkhJL-81" style="edgeStyle=orthogonalEdgeStyle;rounded=0;orthogonalLoop=1;jettySize=auto;html=1;" edge="1" source="par15KkcUKG-uacjkhJL-82" parent="1">
          <mxGeometry relative="1" as="geometry">
            <mxPoint x="480" y="735" as="targetPoint" />
            <Array as="points">
              <mxPoint x="550" y="735" />
              <mxPoint x="480" y="735" />
            </Array>
          </mxGeometry>
        </mxCell>
        <mxCell id="par15KkcUKG-uacjkhJL-82" value="continue;" style="rounded=0;whiteSpace=wrap;html=1;" vertex="1" parent="1">
          <mxGeometry x="520" y="705" width="60" height="20" as="geometry" />
        </mxCell>
        <mxCell id="par15KkcUKG-uacjkhJL-85" value="}" style="text;html=1;align=center;verticalAlign=middle;whiteSpace=wrap;rounded=0;" vertex="1" parent="1">
          <mxGeometry x="480" y="735" width="20" height="20" as="geometry" />
        </mxCell>
        <mxCell id="par15KkcUKG-uacjkhJL-86" value="1" style="text;html=1;align=center;verticalAlign=middle;whiteSpace=wrap;rounded=0;" vertex="1" parent="1">
          <mxGeometry x="460" y="650" width="20" height="15" as="geometry" />
        </mxCell>
        <mxCell id="par15KkcUKG-uacjkhJL-87" value="1" style="text;html=1;align=center;verticalAlign=middle;whiteSpace=wrap;rounded=0;" vertex="1" parent="1">
          <mxGeometry x="410" y="670" width="20" height="15" as="geometry" />
        </mxCell>
        <mxCell id="par15KkcUKG-uacjkhJL-88" value="0" style="text;html=1;align=center;verticalAlign=middle;whiteSpace=wrap;rounded=0;" vertex="1" parent="1">
          <mxGeometry x="530" y="665" width="20" height="17.5" as="geometry" />
        </mxCell>
        <mxCell id="par15KkcUKG-uacjkhJL-90" style="edgeStyle=orthogonalEdgeStyle;rounded=0;orthogonalLoop=1;jettySize=auto;html=1;" edge="1" parent="1">
          <mxGeometry relative="1" as="geometry">
            <mxPoint x="480" y="735" as="targetPoint" />
            <mxPoint x="410" y="722.5" as="sourcePoint" />
            <Array as="points">
              <mxPoint x="410" y="735" />
            </Array>
          </mxGeometry>
        </mxCell>
        <mxCell id="par15KkcUKG-uacjkhJL-89" value="nmatr[i] = matr[i];" style="rounded=0;whiteSpace=wrap;html=1;" vertex="1" parent="1">
          <mxGeometry x="360" y="705" width="100" height="20" as="geometry" />
        </mxCell>
        <mxCell id="par15KkcUKG-uacjkhJL-92" value="{" style="text;html=1;align=center;verticalAlign=middle;whiteSpace=wrap;rounded=0;" vertex="1" parent="1">
          <mxGeometry x="450" y="650" width="20" height="20" as="geometry" />
        </mxCell>
        <mxCell id="par15KkcUKG-uacjkhJL-93" value="0" style="text;html=1;align=center;verticalAlign=middle;whiteSpace=wrap;rounded=0;" vertex="1" parent="1">
          <mxGeometry x="560" y="620" width="20" height="17.5" as="geometry" />
        </mxCell>
        <mxCell id="par15KkcUKG-uacjkhJL-94" value="" style="endArrow=classic;html=1;rounded=0;entryX=0;entryY=0.5;entryDx=0;entryDy=0;" edge="1" parent="1" target="par15KkcUKG-uacjkhJL-75">
          <mxGeometry width="50" height="50" relative="1" as="geometry">
            <mxPoint x="480" y="735" as="sourcePoint" />
            <mxPoint x="360" y="630" as="targetPoint" />
            <Array as="points">
              <mxPoint x="480" y="750" />
              <mxPoint x="350" y="750" />
              <mxPoint x="350" y="640" />
            </Array>
          </mxGeometry>
        </mxCell>
        <mxCell id="par15KkcUKG-uacjkhJL-99" style="edgeStyle=orthogonalEdgeStyle;rounded=0;orthogonalLoop=1;jettySize=auto;html=1;entryX=0.5;entryY=0;entryDx=0;entryDy=0;" edge="1" parent="1" source="par15KkcUKG-uacjkhJL-95" target="par15KkcUKG-uacjkhJL-96">
          <mxGeometry relative="1" as="geometry" />
        </mxCell>
        <mxCell id="par15KkcUKG-uacjkhJL-95" value="delete[] matr;" style="rounded=0;whiteSpace=wrap;html=1;" vertex="1" parent="1">
          <mxGeometry x="630" y="700" width="80" height="20" as="geometry" />
        </mxCell>
        <mxCell id="par15KkcUKG-uacjkhJL-100" style="edgeStyle=orthogonalEdgeStyle;rounded=0;orthogonalLoop=1;jettySize=auto;html=1;entryX=0.5;entryY=0;entryDx=0;entryDy=0;" edge="1" parent="1" source="par15KkcUKG-uacjkhJL-96" target="par15KkcUKG-uacjkhJL-97">
          <mxGeometry relative="1" as="geometry" />
        </mxCell>
        <mxCell id="par15KkcUKG-uacjkhJL-96" value="cout &amp;lt;&amp;lt; &quot;Конечная матрица:&quot; &amp;lt;&amp;lt; endl;" style="shape=parallelogram;perimeter=parallelogramPerimeter;whiteSpace=wrap;html=1;fixedSize=1;" vertex="1" parent="1">
          <mxGeometry x="550" y="735" width="240" height="20" as="geometry" />
        </mxCell>
        <mxCell id="par15KkcUKG-uacjkhJL-101" style="edgeStyle=orthogonalEdgeStyle;rounded=0;orthogonalLoop=1;jettySize=auto;html=1;entryX=0.5;entryY=0;entryDx=0;entryDy=0;" edge="1" parent="1" source="par15KkcUKG-uacjkhJL-97" target="par15KkcUKG-uacjkhJL-98">
          <mxGeometry relative="1" as="geometry" />
        </mxCell>
        <mxCell id="par15KkcUKG-uacjkhJL-97" value="print(nmatr, n, k);" style="rounded=0;whiteSpace=wrap;html=1;" vertex="1" parent="1">
          <mxGeometry x="620" y="770" width="100" height="20" as="geometry" />
        </mxCell>
        <mxCell id="par15KkcUKG-uacjkhJL-103" style="edgeStyle=orthogonalEdgeStyle;rounded=0;orthogonalLoop=1;jettySize=auto;html=1;entryX=0.5;entryY=0;entryDx=0;entryDy=0;" edge="1" parent="1" source="par15KkcUKG-uacjkhJL-98" target="par15KkcUKG-uacjkhJL-102">
          <mxGeometry relative="1" as="geometry" />
        </mxCell>
        <mxCell id="par15KkcUKG-uacjkhJL-98" value="delete[] nmatr;" style="rounded=0;whiteSpace=wrap;html=1;" vertex="1" parent="1">
          <mxGeometry x="630" y="810" width="80" height="20" as="geometry" />
        </mxCell>
        <mxCell id="par15KkcUKG-uacjkhJL-102" value="return 0;" style="ellipse;whiteSpace=wrap;html=1;" vertex="1" parent="1">
          <mxGeometry x="642.5" y="850" width="55" height="30" as="geometry" />
        </mxCell>
        <mxCell id="par15KkcUKG-uacjkhJL-104" value="}" style="text;html=1;align=center;verticalAlign=middle;whiteSpace=wrap;rounded=0;" vertex="1" parent="1">
          <mxGeometry x="697.5" y="855" width="20" height="20" as="geometry" />
        </mxCell>
      </root>
    </mxGraphModel>
  </diagram>
</mxfile>
